<?xml version="1.0" standalone="no"?><!DOCTYPE svg PUBLIC "-//W3C//DTD SVG 1.1//EN" "http://www.w3.org/Graphics/SVG/1.1/DTD/svg11.dtd"><svg t="1721805676770" class="icon" viewBox="0 0 1024 1024" version="1.1" xmlns="http://www.w3.org/2000/svg" p-id="20279" xmlns:xlink="http://www.w3.org/1999/xlink" width="200" height="200"><path d="" fill="#D7F7FF" p-id="20280"></path><path d="M302.41668109 395.31895045h0.27616816c24.1647144 0.13808409 43.63457002 19.88410785 43.49648593 44.04882225-0.13808409 24.02663031-19.74602377 43.49648592-43.77265409 43.49648593h-0.27616817c-24.1647144-0.13808409-43.63457002-19.88410785-43.49648592-44.04882225 0.27616816-24.1647144 19.74602377-43.49648592 43.77265409-43.49648593m0-32.03550709c-41.42522469 0-75.39390894 33.69251609-75.6700771 75.25582485-0.27616816 41.70139286 33.41634791 75.94624527 75.25582486 76.22241342h0.55233633c41.42522469 0 75.39390894-33.69251609 75.6700771-75.25582483 0.27616816-41.70139286-33.41634791-75.94624527-75.25582484-76.22241344h-0.55233635z" fill="#4C466D" p-id="20281"></path><path d="M335.41877675 410.5081995c0.96658859 3.72827022 1.79509307 7.59462453 1.657009 11.73714701-0.13808409 24.1647144-19.88410785 43.63457002-44.04882225 43.49648592-13.11798782-0.13808409-24.71705073-6.07569962-32.72592751-15.32733313 4.97102697 18.50326702 21.67920092 32.17359118 41.70139286 32.31167525 24.1647144 0.13808409 43.91073817-19.33177153 44.04882225-43.49648592 0.27616816-10.90864251-3.86635431-20.98878051-10.63247435-28.72148913z" fill="#C1E6EA" p-id="20282"></path><path d="" fill="#D7F7FF" p-id="20283"></path><path d="M715.28808718 395.31895045h0.27616817c24.1647144 0.13808409 43.63457002 19.88410785 43.49648592 44.04882225-0.13808409 24.02663031-19.74602377 43.49648592-43.77265409 43.49648593h-0.27616816c-24.1647144-0.13808409-43.63457002-19.88410785-43.49648593-44.04882225 0.13808409-24.1647144 19.74602377-43.49648592 43.77265409-43.49648593m0-32.03550709c-41.42522469 0-75.39390894 33.69251609-75.6700771 75.25582485-0.27616816 41.70139286 33.41634791 75.94624527 75.25582485 76.22241342h0.55233633c41.42522469 0 75.39390894-33.69251609 75.6700771-75.25582483 0.27616816-41.70139286-33.41634791-75.94624527-75.25582486-76.22241344h-0.55233632z" fill="#4C466D" p-id="20284"></path><path d="M748.15209876 410.5081995c0.96658859 3.72827022 1.79509307 7.59462453 1.65700899 11.73714701-0.13808409 24.1647144-19.88410785 43.63457002-44.04882226 43.49648592-13.11798782-0.13808409-24.71705073-6.07569962-32.7259275-15.32733313 4.97102697 18.50326702 21.67920092 32.17359118 41.70139286 32.31167525 24.1647144 0.13808409 43.91073817-19.33177153 44.04882225-43.49648592 0.27616816-10.90864251-3.86635431-20.98878051-10.63247434-28.72148913z" fill="#C1E6EA" p-id="20285"></path><path d="M930.83733965 478.72173616c0.8285045 19.33177153-22.09345317 111.57193851-58.82381905 113.09086341 36.86844997-1.51892491 66.97077991 82.43619714 68.07545258 107.84366828-1.10467265-25.40747114 24.85513482-111.71002258 58.82381905-113.0908634-33.96868425 1.38084082-67.108864-85.19787878-68.07545258-107.84366829z" fill="#FFFFFF" p-id="20286"></path><path d="M940.08897318 715.6740214c-8.5612131 0-15.6035013-6.76612003-16.01775354-15.32733313-0.41425225-9.3897176-7.18037229-34.52102059-18.91751929-57.30489417-13.53224006-26.37405971-26.23597565-35.48760915-32.58784343-35.07335691-8.97546534 0.27616816-16.29392172-6.48995186-16.70817395-15.32733313v-0.69042041c0-8.5612131 6.76612003-15.6035013 15.32733313-16.01775355 20.2983601-0.8285045 44.32499042-76.77474976 43.49648593-96.38268945-0.41425225-8.83738127 6.48995186-16.29392172 15.32733314-16.70817395 9.11354943-0.41425225 16.29392172 6.48995186 16.70817396 15.32733314 0.96658859 24.71705073 33.554432 92.51633514 51.09111044 92.51633513h0.27616818c8.83738127-0.41425225 16.29392172 6.48995186 16.70817395 15.32733315v0.69042041c0 8.5612131-6.76612003 15.6035013-15.32733313 16.01775355-18.08901478 0.69042042-44.60115858 70.97521831-43.49648591 96.38268945v0.69042041c0 8.5612131-6.76612003 15.6035013-15.32733317 16.01775354-0.13808409-0.13808409-0.27616816-0.13808409-0.55233631-0.13808408z m-34.24485243-125.79459898c9.94205392 8.83738127 19.19368743 21.67920092 27.75490057 38.38737488 1.38084082 2.76168163 2.89976573 5.66144737 4.28060655 8.69929719 6.90420412-18.36518295 16.29392172-36.5922818 28.0310687-49.43410146-12.97990373-12.15139925-24.02663031-30.10232993-32.44975935-48.19134473-6.62803595 18.64135111-15.74158539 37.42078631-27.61681647 50.53877412z" fill="#4C466D" p-id="20287"></path><path d="M163.91834653 343.12316735c-0.13808409 13.9464923-19.88410785 79.67451549-46.39625165 79.5364314 26.65022788 0.13808409 45.42966308 61.86166887 45.291579 80.08876774 0.13808409-18.36518295 21.817285-79.67451549 46.39625166-79.53643141-24.57896666 0-45.42966308-63.65676193-45.29157901-80.08876773z" fill="#FFFFFF" p-id="20288"></path><path d="M162.81367388 518.90420412c-0.13808409 0-0.13808409 0 0 0-8.83738127 0-16.01775355-7.18037229-16.01775355-16.01775355v-0.13808408c0-6.2137837-3.86635431-24.02663031-11.18481067-40.18246796-8.14696086-17.9509307-15.74158539-23.88854624-18.22709884-23.88854623-8.83738127 0-15.87966947-7.18037229-15.87966949-16.01775355v-0.13808408c0-8.83738127 7.18037229-15.87966947 16.01775355-15.87966948h0.13808409c10.35630617 0 30.10232993-48.19134474 30.3784981-63.65676194 0.13808409-8.69929718 7.31845635-15.87966947 16.01775354-15.87966946h0.13808409c8.83738127 0.13808409 15.87966947 7.18037229 15.87966946 16.01775356-0.13808409 14.49882864 18.7794352 61.30933253 29.54999362 64.07101418 0.41425225 0 0.8285045 0 1.24275674 0.13808409 8.28504494 0.69042042 14.63691274 7.59462453 14.49882865 16.01775355 0 8.83738127-7.31845635 15.87966947-16.15583763 15.87966946h-0.13808409c-10.21822208 1.79509307-30.24041403 46.67241982-30.3784981 63.65676194 0 8.83738127-7.18037229 16.01775355-15.87966947 16.01775355zM148.17676115 422.65959875c5.10911105 5.79953147 10.35630617 13.67032415 15.32733313 24.1647144 4.41869063-8.83738127 9.80396985-17.12242621 15.87966947-23.88854624-6.07569962-7.04228819-11.18481067-15.74158539-15.46541722-24.85513481-4.41869063 8.97546534-9.52780169 17.67476253-15.74158538 24.57896665zM545.44466595 267.17692208c-8.5612131 0-15.6035013-6.76612003-16.01775356-15.32733314-0.41425225-10.90864251 0.8285045-21.817285 3.86635431-32.31167525 3.45210207-12.15139925 8.97546534-23.33620992 16.4320058-33.41634793 5.5233633-7.45654045 12.01331517-14.22266047 19.4698556-20.02219193 7.04228819-5.5233633 16.98434213-4.28060655 22.50770541 2.76168164 5.5233633 6.90420412 4.28060655 16.98434213-2.76168165 22.50770542-5.10911105 4.00443838-9.66588576 8.69929718-13.39415598 13.80840823-5.10911105 6.90420412-8.97546534 14.7749968-11.32289474 23.19812583-2.07126124 7.31845635-3.0378498 14.91308089-2.62359757 22.36962134 0.27616816 8.83738127-6.48995186 16.29392172-15.32733314 16.57008986-0.41425225-0.13808409-0.69042042-0.13808409-0.82850448-0.13808407zM460.24678717 267.17692208h-0.6904204c-8.83738127-0.27616816-15.74158539-7.7327086-15.32733315-16.57008989 0.27616816-7.59462453-0.55233633-15.05116498-2.62359757-22.36962133-2.3474294-8.42312903-6.2137837-16.15583763-11.32289473-23.19812583-3.86635431-5.24719513-8.42312903-9.80396985-13.394156-13.80840823-6.90420412-5.3852792-8.14696086-15.46541722-2.76168164-22.5077054 5.5233633-6.90420412 15.46541722-8.14696086 22.50770541-2.76168165 7.31845635 5.79953147 13.9464923 12.56565149 19.4698556 20.02219194 7.45654045 10.08013802 12.97990373 21.26494868 16.4320058 33.41634791 3.0378498 10.63247434 4.28060655 21.40303275 3.86635431 32.31167526-0.55233633 8.83738127-7.59462453 15.46541722-16.15583763 15.46541722z" fill="#4C466D" p-id="20289"></path><path d="M682.42407558 532.57452827V385.23881245c0-64.48526643-52.74811943-117.23338587-117.23338586-117.23338588h-113.64319975c-64.48526643 0-117.23338587 52.74811943-117.23338587 117.23338588v147.33571582h348.10997148z" fill="#ffffff" p-id="20290"></path><path d="M565.32877379 268.14351066c64.48526643 0 117.23338587 52.74811943 117.23338589 117.23338587V532.71261235H334.59027227V385.23881245c0-64.48526643 52.74811943-117.23338587 117.23338586-117.23338588h113.50511566m0-31.89742302h-113.64319972c-82.29811305 0-149.13080889 66.97077991-149.13080889 149.1308089v179.37122291h412.04290158V385.23881245c-0.13808409-82.29811305-67.108864-149.13080889-149.26889297-149.1308089z" fill="#4C466D" p-id="20291"></path><path d="M429.03978457 404.29441581m-23.33620991 0a23.33620992 23.33620992 0 1 0 46.67241981 0 23.33620992 23.33620992 0 1 0-46.67241981 0Z" fill="#D7F7FF" p-id="20292"></path><path d="M429.03978457 380.9582059c12.84181965 0 23.33620992 10.49439025 23.3362099 23.33620991 0 12.84181965-10.49439025 23.33620992-23.3362099 23.33620991-12.84181965 0-23.33620992-10.49439025-23.33620991-23.33620991 0-12.84181965 10.49439025-23.33620992 23.33620991-23.33620991m0-31.89742302c-30.5165822 0-55.371717 24.85513482-55.37171701 55.371717s24.85513482 55.371717 55.37171701 55.37171701 55.371717-24.85513482 55.371717-55.37171701c0-30.65466627-24.85513482-55.371717-55.371717-55.371717z" fill="#4C466D" p-id="20293"></path><path d="M426.69235517 178.66502532m-14.08457641 0a14.08457639 14.08457639 0 1 0 28.1691528 0 14.08457639 14.08457639 0 1 0-28.1691528 0Z" fill="#F7554A" p-id="20294"></path><path d="M426.69235517 164.44236483c7.87079269 0 14.08457639 6.35186779 14.08457639 14.08457641s-6.35186779 14.08457639-14.08457639 14.08457639c-7.87079269 0-14.08457639-6.35186779-14.08457641-14.08457639s6.2137837-14.08457639 14.08457641-14.08457641m0-31.897423c-25.40747114 0-46.12008349 20.71261235-46.12008349 46.12008349s20.71261235 46.12008349 46.12008349 46.12008348 46.12008349-20.71261235 46.12008349-46.12008348-20.71261235-46.12008349-46.12008349-46.12008349z" fill="#4C466D" p-id="20295"></path><path d="M578.99909795 178.66502532m-14.0845764 0a14.08457639 14.08457639 0 1 0 28.1691528 0 14.08457639 14.08457639 0 1 0-28.1691528 0Z" fill="#F7554A" p-id="20296"></path><path d="M578.99909795 164.44236483c7.87079269 0 14.08457639 6.35186779 14.0845764 14.08457641s-6.35186779 14.08457639-14.0845764 14.08457639c-7.87079269 0-14.08457639-6.35186779-14.0845764-14.08457639s6.2137837-14.08457639 14.0845764-14.08457641m0-31.897423c-25.40747114 0-46.12008349 20.71261235-46.12008349 46.12008349s20.71261235 46.12008349 46.12008349 46.12008348 46.12008349-20.71261235 46.12008348-46.12008348-20.71261235-46.12008349-46.12008348-46.12008349z" fill="#4C466D" p-id="20297"></path><path d="M593.91217883 404.29441581m-23.33620991 0a23.33620992 23.33620992 0 1 0 46.67241983 0 23.33620992 23.33620992 0 1 0-46.67241983 0Z" fill="#D7F7FF" p-id="20298"></path><path d="M593.91217883 380.9582059c12.84181965 0 23.33620992 10.49439025 23.33620992 23.33620991 0 12.84181965-10.49439025 23.33620992-23.33620992 23.33620991s-23.33620992-10.49439025-23.33620991-23.33620991c0-12.84181965 10.49439025-23.33620992 23.33620991-23.33620991m0-31.89742302c-30.5165822 0-55.371717 24.85513482-55.371717 55.371717s24.85513482 55.371717 55.371717 55.37171701 55.371717-24.85513482 55.37171702-55.37171701c0-30.65466627-24.85513482-55.371717-55.37171702-55.371717zM504.01944125 507.16705712c-1.93317715 0-3.72827022-0.27616816-5.66144737-0.96658859-8.28504494-3.0378498-12.42756741-12.28948332-9.38971759-20.57452824 5.10911105-13.53224006 7.7327086-26.51214381 7.87079269-38.52545897 0.13808409-8.83738127 7.7327086-15.87966947 16.15583762-15.74158538 8.83738127 0.13808409 15.87966947 7.31845635 15.74158539 16.15583763-0.13808409 15.74158539-3.59018613 32.31167525-9.94205392 49.29601738-2.20934532 6.35186779-8.28504494 10.35630617-14.77499682 10.35630617zM457.20893735 340.08531753c-5.10911105 0-10.21822208-2.48551348-13.2560719-7.0422882-3.59018613-5.24719513-6.90420412-10.77055842-10.080138-16.29392171-4.41869063-7.7327086-1.65700898-17.39859437 5.93761553-21.81728501 7.7327086-4.41869063 17.39859437-1.65700898 21.81728501 5.93761554 2.76168163 4.97102697 5.79953147 9.66588576 8.83738126 14.36074457 4.97102697 7.31845635 3.0378498 17.26051028-4.28060655 22.23153725-2.76168163 1.79509307-5.93761554 2.62359757-8.97546535 2.62359756zM561.04816725 340.08531753c-3.0378498 0-6.2137837-0.8285045-8.97546535-2.76168165-7.31845635-4.97102697-9.25163351-14.91308089-4.28060655-22.23153725 3.1759339-4.69485881 6.07569962-9.3897176 8.83738125-14.36074455 4.41869063-7.7327086 14.08457639-10.35630617 21.81728502-5.93761555 7.7327086 4.41869063 10.35630617 14.08457639 5.93761553 21.81728501-3.1759339 5.5233633-6.48995186 11.04672658-10.080138 16.29392171-3.0378498 4.69485881-8.14696086 7.18037229-13.2560719 7.18037228z" fill="#4C466D" p-id="20299"></path><path d="M737.65770851 616.52965031H288.1940206c-23.06004175 0-41.97756103-18.91751926-41.97756102-41.97756103s18.91751926-41.97756103 41.97756104-41.97756101H737.7957926c23.06004175 0 41.97756103 18.91751926 41.97756102 41.97756101s-18.91751926 41.97756103-42.11564511 41.97756103z" fill="#49DAF2" p-id="20300"></path><path d="M737.65770851 632.54740385H288.1940206c-32.03550709 0-57.99531457-25.95980747-57.99531455-57.99531457s25.95980747-57.99531457 57.99531457-57.99531456H737.7957926c32.03550709 0 57.99531457 25.95980747 57.99531457 57.99531456-0.13808409 32.03550709-26.09789155 57.99531457-58.13339866 57.99531457z m-449.46368791-83.95512205c-14.36074457 0-25.95980747 11.59906291-25.95980746 25.95980748s11.59906291 25.95980747 25.95980746 25.95980747H737.7957926c14.36074457 0 25.95980747-11.59906291 25.95980746-25.95980747s-11.59906291-25.95980747-25.95980746-25.95980748H288.1940206z" fill="#4C466D" p-id="20301"></path><path d="M737.65770851 701.86561317H288.1940206c-23.06004175 0-41.97756103-18.91751926-41.97756102-41.97756102s18.91751926-41.97756103 41.97756104-41.97756102H737.7957926c23.06004175 0 41.97756103 18.91751926 41.97756102 41.97756102s-18.91751926 41.97756103-42.11564511 41.97756102z" fill="#49DAF2" p-id="20302"></path><path d="M737.65770851 717.74528263H288.1940206c-32.03550709 0-57.99531457-25.95980747-57.99531455-57.99531457s25.95980747-57.99531457 57.99531457-57.99531457H737.7957926c32.03550709 0 57.99531457 25.95980747 57.99531457 57.99531457-0.13808409 32.03550709-26.09789155 57.99531457-58.13339866 57.99531457z m-449.46368791-83.95512204c-14.36074457 0-25.95980747 11.59906291-25.95980746 25.95980747s11.59906291 25.95980747 25.95980746 25.95980748H737.7957926c14.36074457 0 25.95980747-11.59906291 25.95980746-25.95980748s-11.59906291-25.95980747-25.95980746-25.95980747H288.1940206z" fill="#4C466D" p-id="20303"></path><path d="M430.00637314 791.48218258H288.1940206c-23.06004175 0-41.97756103-18.91751926-41.97756102-41.97756101s18.91751926-41.97756103 41.97756104-41.97756104h141.9504366c23.06004175 0 41.97756103 18.91751926 41.97756102 41.97756104s-18.91751926 41.97756103-42.1156451 41.97756101z" fill="#49DAF2" p-id="20304"></path><path d="M430.00637314 807.49993614H288.1940206c-32.03550709 0-57.99531457-25.95980747-57.99531455-57.99531457s25.95980747-57.99531457 57.99531457-57.99531457h141.9504366c32.03550709 0 57.99531457 25.95980747 57.99531458 57.99531457-0.13808409 32.03550709-26.09789155 57.99531457-58.13339866 57.99531457z m-141.81235254-83.95512206c-14.36074457 0-25.95980747 11.59906291-25.95980746 25.95980749s11.59906291 25.95980747 25.95980748 25.95980746h141.9504366c14.36074457 0 25.95980747-11.59906291 25.95980747-25.95980746s-11.59906291-25.95980747-25.95980747-25.95980749H288.1940206z" fill="#4C466D" p-id="20305"></path><path d="M737.65770851 791.48218258H595.84535599c-23.06004175 0-41.97756103-18.91751926-41.97756102-41.97756101s18.91751926-41.97756103 41.97756102-41.97756104H737.7957926c23.06004175 0 41.97756103 18.91751926 41.97756102 41.97756104s-18.91751926 41.97756103-42.11564511 41.97756101z" fill="#49DAF2" p-id="20306"></path><path d="M737.65770851 807.49993614H595.84535599c-32.03550709 0-57.99531457-25.95980747-57.99531455-57.99531457s25.95980747-57.99531457 57.99531455-57.99531457H737.7957926c32.03550709 0 57.99531457 25.95980747 57.99531457 57.99531457-0.13808409 32.03550709-26.09789155 57.99531457-58.13339866 57.99531457z m-141.81235252-83.95512206c-14.36074457 0-25.95980747 11.59906291-25.95980748 25.95980749s11.59906291 25.95980747 25.95980748 25.95980746H737.7957926c14.36074457 0 25.95980747-11.59906291 25.95980746-25.95980746s-11.59906291-25.95980747-25.95980746-25.95980749H595.84535599z" fill="#4C466D" p-id="20307"></path><path d="M430.00637314 875.43730463H288.1940206c-23.06004175 0-41.97756103-18.91751926-41.97756102-41.97756102s18.91751926-41.97756103 41.97756104-41.97756103h141.9504366c23.06004175 0 41.97756103 18.91751926 41.97756102 41.97756103 0 23.19812583-18.91751926 41.97756103-42.1156451 41.97756102z" fill="#49DAF2" p-id="20308"></path><path d="M430.00637314 891.45505817H288.1940206c-32.03550709 0-57.99531457-25.95980747-57.99531455-57.99531456s25.95980747-57.99531457 57.99531457-57.99531458h141.9504366c32.03550709 0 57.99531457 25.95980747 57.99531458 57.99531458-0.13808409 32.03550709-26.09789155 57.99531457-58.13339866 57.99531456zM288.1940206 807.49993614c-14.36074457 0-25.95980747 11.59906291-25.95980746 25.95980747s11.59906291 25.95980747 25.95980748 25.95980747h141.9504366c14.36074457 0 25.95980747-11.59906291 25.95980747-25.95980747s-11.59906291-25.95980747-25.95980747-25.95980747H288.1940206z" fill="#4C466D" p-id="20309"></path><path d="M737.65770851 875.43730463H595.84535599c-23.06004175 0-41.97756103-18.91751926-41.97756102-41.97756102s18.91751926-41.97756103 41.97756102-41.97756103H737.7957926c23.06004175 0 41.97756103 18.91751926 41.97756102 41.97756103 0 23.19812583-18.91751926 41.97756103-42.11564511 41.97756102z" fill="#49DAF2" p-id="20310"></path><path d="M737.65770851 891.45505817H595.84535599c-32.03550709 0-57.99531457-25.95980747-57.99531455-57.99531456s25.95980747-57.99531457 57.99531455-57.99531458H737.7957926c32.03550709 0 57.99531457 25.95980747 57.99531457 57.99531458-0.13808409 32.03550709-26.09789155 57.99531457-58.13339866 57.99531456zM595.84535599 807.49993614c-14.36074457 0-25.95980747 11.59906291-25.95980748 25.95980747s11.59906291 25.95980747 25.95980748 25.95980747H737.7957926c14.36074457 0 25.95980747-11.59906291 25.95980746-25.95980747S752.15653715 807.49993614 737.7957926 807.49993614H595.84535599z" fill="#4C466D" p-id="20311"></path><path d="M176.62208211 724.23523451c-68.07545259 0-121.51399243-10.08013802-152.72099503-30.51658221-19.33177153-12.70373557-30.5165822-29.13574137-33.00209567-48.74368105-9.25163351-70.83713422 37.28270222-123.72333775 165.70089878-188.7609405 7.87079269-4.00443838 17.53667845-0.8285045 21.54111683 7.0422882 4.00443838 7.87079269 0.8285045 17.53667845-7.0422882 21.54111684-131.45604637 66.41844358-154.37800401 110.46726585-148.44038847 156.03501301 1.38084082 10.08013802 7.45654045 18.64135111 18.77943519 26.09789155 65.45185502 42.9441496 266.0880266 29.82616178 477.21858843-31.2070026C793.30559369 556.46307451 948.23593403 438.81543638 939.39855275 371.01615197c-5.5233633-42.1156451-75.11774077-62.55208928-191.24645399-56.33830559-8.69929718 0.55233633-16.29392172-6.2137837-16.84625802-15.05116496-0.41425225-8.83738127 6.2137837-16.43200579 15.05116496-16.84625805 175.36678453-9.52780169 219.00135453 40.45863612 224.66280192 84.09320612 12.70373557 97.34927803-169.84342124 220.52027943-443.66415645 299.64245861-131.73221452 38.11120672-255.59363635 57.7191464-350.73356906 57.71914641z" fill="#4C466D" p-id="20312"></path><path d="M801.31447046 292.7224773m-37.42078631 0a37.42078631 37.42078631 0 1 0 74.8415726 0 37.42078631 37.42078631 0 1 0-74.8415726 0Z" fill="#F7554A" p-id="20313"></path><path d="M801.31447046 255.301691c20.71261235 0 37.42078631 16.70817396 37.42078629 37.4207863S822.02708282 330.14326361 801.31447046 330.14326361c-20.71261235 0-37.42078631-16.70817396-37.42078631-37.42078631s16.84625804-37.42078631 37.42078631-37.4207863m0-32.0355071c-38.24929081 0-69.4562934 31.06891852-69.45629341 69.4562934 0 38.24929081 31.06891852 69.4562934 69.45629341 69.4562934s69.4562934-31.06891852 69.45629341-69.4562934c0-38.24929081-31.06891852-69.4562934-69.45629341-69.4562934z" fill="#4C466D" p-id="20314"></path><path d="M82.58682207 567.64788517c-0.13808409 18.7794352-26.51214381 106.60091154-62.13783704 106.46282746 35.62569324 0.27616816 60.8950803 82.7123653 60.61891212 107.29133196 0.13808409-24.57896666 29.27382545-106.60091154 62.13783705-106.46282747-32.86401158-0.27616816-60.75699621-85.47404695-60.61891213-107.29133195z" fill="#FFFFFF" p-id="20315"></path><path d="M81.06789715 797.28171404s-0.13808409 0 0 0c-8.97546534 0-16.01775355-7.18037229-16.01775353-16.01775354v-0.13808408c0-8.97546534-5.24719513-33.554432-15.46541724-56.06213742-11.737147-25.8217234-23.06004175-35.07335691-29.27382543-35.07335692-8.83738127 0-15.87966947-7.18037229-15.87966948-16.01775355v-0.13808407c0-8.83738127 7.18037229-16.29392172 16.15583763-15.87966946 6.48995186 0 18.08901478-11.32289475 29.68807772-36.7303659 10.49439025-23.06004175 16.29392172-47.63900839 16.29392169-53.8527921 0-8.83738127 7.18037229-15.87966947 16.01775356-15.87966946h0.13808406c8.83738127 0 15.87966947 7.31845635 15.87966949 16.15583763 0 6.76612003 5.3852792 30.93083443 16.43200578 54.95746475 12.15139925 26.51214381 23.61237808 36.17802957 28.30723688 36.17802957 8.83738127 0 15.87966947 7.18037229 15.87966945 16.01775354v0.13808409c0 8.83738127-7.18037229 15.87966947-16.01775353 15.87966946h-0.13808409c-17.26051028 0-45.84391532 66.00419135-45.98199941 90.58315801-0.13808409 8.83738127-7.31845635 15.87966947-16.01775355 15.87966945z m-26.92639605-123.30908551c8.97546534 8.97546534 17.26051028 21.67920092 24.57896665 37.97312265 1.10467265 2.48551348 2.20934532 4.97102697 3.17593389 7.45654044 7.31845635-16.84625804 16.98434213-33.27826384 28.44532096-44.87732675-8.69929718-9.11354943-16.84625804-21.95536909-24.44088257-38.52545895-1.24275675-2.76168163-2.48551348-5.5233633-3.59018613-8.28504494-0.96658859 2.3474294-1.93317715 4.55677472-3.03784981 6.76612002-7.7327086 17.12242621-16.15583763 30.3784981-25.13130299 39.49204753z" fill="#4C466D" p-id="20316"></path></svg>